<mxfile host="app.diagrams.net" agent="Mozilla/5.0 (Windows NT 10.0; Win64; x64) AppleWebKit/537.36 (KHTML, like Gecko) Chrome/135.0.0.0 Safari/537.36" version="26.2.9">
  <diagram name="Page-1" id="pANCqRTnDvpiT3NyE_gX">
    <mxGraphModel dx="1256" dy="517" grid="1" gridSize="10" guides="1" tooltips="1" connect="1" arrows="1" fold="1" page="1" pageScale="1" pageWidth="850" pageHeight="1100" math="0" shadow="0">
      <root>
        <mxCell id="0" />
        <mxCell id="1" parent="0" />
        <mxCell id="AtM_QINytiNtAoSNpMNk-3" value="Actor" style="shape=umlActor;verticalLabelPosition=bottom;verticalAlign=top;html=1;outlineConnect=0;" parent="1" vertex="1">
          <mxGeometry x="120" y="250" width="30" height="60" as="geometry" />
        </mxCell>
        <mxCell id="AtM_QINytiNtAoSNpMNk-8" value="Login/logout" style="ellipse;whiteSpace=wrap;html=1;" parent="1" vertex="1">
          <mxGeometry x="510" y="100" width="150" height="60" as="geometry" />
        </mxCell>
        <mxCell id="AtM_QINytiNtAoSNpMNk-9" value="Manage Exercise Data" style="ellipse;whiteSpace=wrap;html=1;" parent="1" vertex="1">
          <mxGeometry x="510" y="180" width="150" height="60" as="geometry" />
        </mxCell>
        <mxCell id="AtM_QINytiNtAoSNpMNk-10" value="Manage Sleep Data" style="ellipse;whiteSpace=wrap;html=1;" parent="1" vertex="1">
          <mxGeometry x="510" y="260" width="150" height="60" as="geometry" />
        </mxCell>
        <mxCell id="AtM_QINytiNtAoSNpMNk-11" value="Manage Diet" style="ellipse;whiteSpace=wrap;html=1;" parent="1" vertex="1">
          <mxGeometry x="510" y="340" width="150" height="60" as="geometry" />
        </mxCell>
        <mxCell id="AtM_QINytiNtAoSNpMNk-12" value="Register" style="ellipse;whiteSpace=wrap;html=1;" parent="1" vertex="1">
          <mxGeometry x="510" y="20" width="150" height="60" as="geometry" />
        </mxCell>
        <mxCell id="AtM_QINytiNtAoSNpMNk-13" value="Manage Health Data" style="ellipse;whiteSpace=wrap;html=1;" parent="1" vertex="1">
          <mxGeometry x="510" y="420" width="150" height="60" as="geometry" />
        </mxCell>
        <mxCell id="AtM_QINytiNtAoSNpMNk-15" value="Manage Mood" style="ellipse;whiteSpace=wrap;html=1;" parent="1" vertex="1">
          <mxGeometry x="510" y="500" width="150" height="60" as="geometry" />
        </mxCell>
        <mxCell id="AtM_QINytiNtAoSNpMNk-17" value="View Summary" style="ellipse;whiteSpace=wrap;html=1;" parent="1" vertex="1">
          <mxGeometry x="510" y="660" width="150" height="60" as="geometry" />
        </mxCell>
        <mxCell id="AtM_QINytiNtAoSNpMNk-18" value="Manage Goals" style="ellipse;whiteSpace=wrap;html=1;" parent="1" vertex="1">
          <mxGeometry x="510" y="580" width="150" height="60" as="geometry" />
        </mxCell>
        <mxCell id="AtM_QINytiNtAoSNpMNk-20" value="" style="endArrow=none;html=1;rounded=0;entryX=0.032;entryY=0.735;entryDx=0;entryDy=0;entryPerimeter=0;" parent="1" target="AtM_QINytiNtAoSNpMNk-12" edge="1">
          <mxGeometry width="50" height="50" relative="1" as="geometry">
            <mxPoint x="160" y="266" as="sourcePoint" />
            <mxPoint x="490" y="266" as="targetPoint" />
          </mxGeometry>
        </mxCell>
        <mxCell id="AtM_QINytiNtAoSNpMNk-23" value="" style="endArrow=none;html=1;rounded=0;entryX=0;entryY=0.5;entryDx=0;entryDy=0;" parent="1" target="AtM_QINytiNtAoSNpMNk-8" edge="1">
          <mxGeometry width="50" height="50" relative="1" as="geometry">
            <mxPoint x="170" y="276" as="sourcePoint" />
            <mxPoint x="525" y="74" as="targetPoint" />
          </mxGeometry>
        </mxCell>
        <mxCell id="AtM_QINytiNtAoSNpMNk-24" value="" style="endArrow=none;html=1;rounded=0;entryX=0;entryY=0.5;entryDx=0;entryDy=0;" parent="1" target="AtM_QINytiNtAoSNpMNk-9" edge="1">
          <mxGeometry width="50" height="50" relative="1" as="geometry">
            <mxPoint x="180" y="286" as="sourcePoint" />
            <mxPoint x="535" y="84" as="targetPoint" />
          </mxGeometry>
        </mxCell>
        <mxCell id="AtM_QINytiNtAoSNpMNk-25" value="" style="endArrow=none;html=1;rounded=0;entryX=0;entryY=0.5;entryDx=0;entryDy=0;" parent="1" target="AtM_QINytiNtAoSNpMNk-10" edge="1">
          <mxGeometry width="50" height="50" relative="1" as="geometry">
            <mxPoint x="190" y="296" as="sourcePoint" />
            <mxPoint x="545" y="94" as="targetPoint" />
          </mxGeometry>
        </mxCell>
        <mxCell id="AtM_QINytiNtAoSNpMNk-26" value="" style="endArrow=none;html=1;rounded=0;entryX=0;entryY=0.5;entryDx=0;entryDy=0;" parent="1" target="AtM_QINytiNtAoSNpMNk-11" edge="1">
          <mxGeometry width="50" height="50" relative="1" as="geometry">
            <mxPoint x="200" y="306" as="sourcePoint" />
            <mxPoint x="555" y="104" as="targetPoint" />
          </mxGeometry>
        </mxCell>
        <mxCell id="AtM_QINytiNtAoSNpMNk-27" value="" style="endArrow=none;html=1;rounded=0;entryX=0;entryY=0.5;entryDx=0;entryDy=0;" parent="1" target="AtM_QINytiNtAoSNpMNk-13" edge="1">
          <mxGeometry width="50" height="50" relative="1" as="geometry">
            <mxPoint x="190" y="310" as="sourcePoint" />
            <mxPoint x="565" y="114" as="targetPoint" />
          </mxGeometry>
        </mxCell>
        <mxCell id="AtM_QINytiNtAoSNpMNk-28" value="" style="endArrow=none;html=1;rounded=0;entryX=0;entryY=0.5;entryDx=0;entryDy=0;" parent="1" target="AtM_QINytiNtAoSNpMNk-15" edge="1">
          <mxGeometry width="50" height="50" relative="1" as="geometry">
            <mxPoint x="180" y="320" as="sourcePoint" />
            <mxPoint x="575" y="124" as="targetPoint" />
          </mxGeometry>
        </mxCell>
        <mxCell id="AtM_QINytiNtAoSNpMNk-29" value="" style="endArrow=none;html=1;rounded=0;entryX=0;entryY=0.5;entryDx=0;entryDy=0;" parent="1" target="AtM_QINytiNtAoSNpMNk-18" edge="1">
          <mxGeometry width="50" height="50" relative="1" as="geometry">
            <mxPoint x="170" y="330" as="sourcePoint" />
            <mxPoint x="585" y="134" as="targetPoint" />
          </mxGeometry>
        </mxCell>
        <mxCell id="AtM_QINytiNtAoSNpMNk-30" value="" style="endArrow=none;html=1;rounded=0;entryX=0;entryY=0.5;entryDx=0;entryDy=0;" parent="1" target="AtM_QINytiNtAoSNpMNk-17" edge="1">
          <mxGeometry width="50" height="50" relative="1" as="geometry">
            <mxPoint x="160" y="340" as="sourcePoint" />
            <mxPoint x="490" y="630" as="targetPoint" />
          </mxGeometry>
        </mxCell>
      </root>
    </mxGraphModel>
  </diagram>
</mxfile>
